<?xml version="1.0" encoding="utf-8"?><svg viewBox="0 0 117 22" xmlns="http://www.w3.org/2000/svg" xmlns:xlink="http://www.w3.org/1999/xlink"><style>:root>svg{display:none}:root>svg:target{display:block}</style><svg viewBox="0 0 12 21.03" id="down-arrow" xmlns="http://www.w3.org/2000/svg"><path d="M.307 15.72l4.983 5a.977.977 0 001.409 0l4.983-5a1 1 0 00-.7-1.71H6.995v-13a1 1 0 10-1.993 0v13H1.016a1 1 0 00-.709 1.71zm8.265.3L6 18.6l-2.578-2.58h5.155z"/></svg><svg viewBox="0 0 117 22" id="logo" xmlns="http://www.w3.org/2000/svg"><path data-name="logo zonex" d="M1 1h17L8 18h9v4H0L10 6H1V1zm32 21A10.955 10.955 0 0122.183 9.051l5.726 5.09a6.007 6.007 0 10-.115-6.071l-3.822-3.345A11 11 0 1133 22zm17 0V12l5 3v7h-5zm0-16l19 16V0h-5v11L50 0v6zm41-6H76v22h15v-4H81v-5h9V9h-9V4h10V0zm26 22h-6l-5-6.875L101 22h-6l8-11-8-11h6l5 6.875L111 0h6l-8 11z"/></svg></svg>