<?xml version="1.0" encoding="utf-8"?><svg viewBox="0 0 400.004 400.004" xmlns="http://www.w3.org/2000/svg" xmlns:xlink="http://www.w3.org/1999/xlink"><style>:root>svg{display:none}:root>svg:target{display:block}</style><svg viewBox="0 0 330 330" id="angle-right" xmlns="http://www.w3.org/2000/svg"><path d="M250.606 154.389l-150-149.996c-5.857-5.858-15.355-5.858-21.213.001-5.857 5.858-5.857 15.355.001 21.213l139.393 139.39L79.393 304.394c-5.857 5.858-5.857 15.355.001 21.213C82.322 328.536 86.161 330 90 330s7.678-1.464 10.607-4.394l149.999-150.004a14.996 14.996 0 000-21.213z"/></svg><svg viewBox="0 0 24 24" id="close" xmlns="http://www.w3.org/2000/svg"><path d="M4.99 3.99a1 1 0 00-.697 1.717L10.586 12l-6.293 6.293a1 1 0 101.414 1.414L12 13.414l6.293 6.293a1 1 0 101.414-1.414L13.414 12l6.293-6.293a1 1 0 00-.727-1.717 1 1 0 00-.687.303L12 10.586 5.707 4.293a1 1 0 00-.717-.303z"/></svg><svg viewBox="0 0 12 21.03" id="down-arrow" xmlns="http://www.w3.org/2000/svg"><path d="M.307 15.72l4.983 5a.977.977 0 001.409 0l4.983-5a1 1 0 00-.7-1.71H6.995v-13a1 1 0 10-1.993 0v13H1.016a1 1 0 00-.709 1.71zm8.265.3L6 18.6l-2.578-2.58h5.155z"/></svg><svg viewBox="0 0 400.004 400.004" id="left-arrow" xmlns="http://www.w3.org/2000/svg"><path d="M382.688 182.686H59.116l77.209-77.214c6.764-6.76 6.764-17.726 0-24.485-6.764-6.764-17.73-6.764-24.484 0L5.073 187.757c-6.764 6.76-6.764 17.727 0 24.485l106.768 106.775a17.252 17.252 0 0012.242 5.072c4.43 0 8.861-1.689 12.242-5.072 6.764-6.76 6.764-17.726 0-24.484l-77.209-77.218h323.572c9.562 0 17.316-7.753 17.316-17.315 0-9.562-7.753-17.314-17.316-17.314z"/></svg><svg viewBox="0 0 117 22" id="logo" xmlns="http://www.w3.org/2000/svg"><path data-name="logo zonex" d="M1 1h17L8 18h9v4H0L10 6H1V1zm32 21A10.955 10.955 0 0122.183 9.051l5.726 5.09a6.007 6.007 0 10-.115-6.071l-3.822-3.345A11 11 0 1133 22zm17 0V12l5 3v7h-5zm0-16l19 16V0h-5v11L50 0v6zm41-6H76v22h15v-4H81v-5h9V9h-9V4h10V0zm26 22h-6l-5-6.875L101 22h-6l8-11-8-11h6l5 6.875L111 0h6l-8 11z"/></svg><svg viewBox="0 0 12 2" id="minus" xmlns="http://www.w3.org/2000/svg"><path data-name="Rectangle 43 copy 2" d="M0 0h12v2H0z"/></svg><svg viewBox="0 0 12 12" id="plus" xmlns="http://www.w3.org/2000/svg"><path data-name="Rectangle 43 copy" d="M12 7H7v5H5V7H0V5h5V0h2v5h5v2z"/></svg><svg viewBox="0 0 330 330" id="right-arrow" xmlns="http://www.w3.org/2000/svg"><path d="M15 180h263.787l-49.394 49.394c-5.858 5.857-5.858 15.355 0 21.213C232.322 253.535 236.161 255 240 255s7.678-1.465 10.606-4.394l75-75c5.858-5.857 5.858-15.355 0-21.213l-75-75c-5.857-5.857-15.355-5.857-21.213 0-5.858 5.857-5.858 15.355 0 21.213L278.787 150H15c-8.284 0-15 6.716-15 15s6.716 15 15 15z"/></svg><svg viewBox="0 0 12 21" id="to-top" xmlns="http://www.w3.org/2000/svg"><path d="M11.69 5.28L6.71.27a1 1 0 00-1.41 0L.32 5.28a.992.992 0 00.7 1.7h3.99v13.01a1 1 0 101.99 0V6.98h3.99a.992.992 0 00.7-1.7zm-8.26-.3L6.01 2.4l2.57 2.58H3.43z"/></svg></svg>